# Blender v2.77 (sub 0) OBJ File: ''
# www.blender.org
mtllib hair_short.mtl
o hair_short
v 0.352789 15.376098 -0.896873
v 0.284443 14.908051 -0.789403
v 0.000000 14.908051 -0.865605
v 0.000000 15.376098 -0.991780
v 0.290601 14.605989 -0.798999
v 0.000000 14.605989 -0.876903
v 0.595461 14.908051 -0.485039
v 0.592448 15.325006 -0.592510
v 0.651070 15.267776 -0.244402
v 0.656535 15.071299 -0.257359
v 0.580723 14.605989 -0.494635
v 0.668851 14.605989 -0.237112
v 0.213936 16.144741 -0.004018
v 0.209064 16.144741 -0.162888
v 0.139402 16.144741 -0.313957
v 0.115886 16.193514 -0.023661
v 0.179708 16.144741 0.183202
v 0.090805 16.144741 0.285948
v -0.352789 15.376098 -0.896873
v -0.284443 14.908051 -0.789403
v -0.290601 14.605989 -0.798999
v -0.595461 14.908051 -0.485039
v -0.656535 15.071299 -0.257359
v -0.651070 15.267776 -0.244402
v -0.592448 15.325006 -0.592510
v -0.580723 14.605989 -0.494635
v -0.668851 14.605989 -0.237112
v -0.213936 16.144741 -0.004018
v -0.115886 16.193514 -0.023661
v -0.139402 16.144741 -0.313957
v -0.209064 16.144741 -0.162888
v -0.179708 16.144741 0.183202
v -0.090805 16.144741 0.285948
v 0.380543 14.774907 -0.342629
v 0.190428 14.774907 -0.542077
v 0.000000 14.774907 -0.593127
v 0.426640 15.208570 -0.178653
v 0.430222 15.079821 -0.187145
v 0.438293 14.774907 -0.173877
v 0.701860 15.376098 0.212937
v 0.459923 15.279552 0.121037
v 0.448631 15.404463 0.668846
v 0.293984 15.298141 0.419791
v 0.047339 15.586053 0.769570
v 0.031021 15.417134 0.485793
v -0.190428 14.774907 -0.542077
v -0.380543 14.774907 -0.342629
v -0.430222 15.079821 -0.187145
v -0.426640 15.208570 -0.178653
v -0.438293 14.774907 -0.173877
v -0.701860 15.376098 0.212937
v -0.459923 15.279552 0.121037
v -0.448631 15.404463 0.668846
v -0.293984 15.298141 0.419791
v 0.519183 15.902756 -0.430203
v 0.591378 15.595449 -0.548995
v 0.301256 15.595449 -0.868678
v 0.229060 15.902756 -0.734567
v 0.387908 16.044508 -0.305548
v 0.205090 16.044508 -0.526951
v 0.000000 16.044508 -0.552819
v 0.000000 16.144741 -0.333876
v 0.000000 15.595449 -0.946787
v 0.000000 15.902756 -0.789146
v 0.415990 16.044508 -0.090502
v 0.607310 15.902756 -0.172681
v 0.712089 15.562241 -0.214529
v 0.380776 16.044508 0.240917
v 0.539683 15.902756 0.257342
v 0.656817 15.595449 0.243183
v 0.198256 16.044508 0.460895
v 0.299751 15.902756 0.567086
v 0.431553 15.612000 0.655769
v 0.000000 16.144741 0.301974
v 0.000000 16.044508 0.488575
v 0.031976 15.902756 0.673500
v 0.104579 15.732887 0.766609
v 0.000000 16.193514 -0.026186
v -0.519183 15.902756 -0.430203
v -0.229060 15.902756 -0.734567
v -0.301256 15.595449 -0.868678
v -0.591378 15.595449 -0.548995
v -0.205090 16.044508 -0.526951
v -0.387908 16.044508 -0.305548
v -0.415990 16.044508 -0.090502
v -0.712089 15.562241 -0.214529
v -0.607310 15.902756 -0.172681
v -0.380776 16.044508 0.240917
v -0.656817 15.595449 0.243183
v -0.539683 15.902756 0.257342
v -0.198256 16.044508 0.460895
v -0.431553 15.612000 0.655769
v -0.299751 15.902756 0.567086
vt 0.2221 0.5559
vt 0.2041 0.6789
vt 0.1293 0.6789
vt 0.1293 0.5559
vt 0.2057 0.7583
vt 0.1293 0.7583
vt 0.0813 0.1102
vt 0.1909 0.0820
vt 0.1759 0.1735
vt 0.1242 0.1701
vt 0.0019 0.1077
vt 0.0019 0.1754
vt 0.8839 0.5955
vt 0.8826 0.6373
vt 0.8643 0.6770
vt 0.8581 0.6007
vt 0.8749 0.5463
vt 0.8515 0.5193
vt 0.0366 0.5559
vt 0.0546 0.6789
vt 0.0530 0.7583
vt 0.4656 0.3053
vt 0.5085 0.2455
vt 0.5602 0.2421
vt 0.5752 0.3336
vt 0.3862 0.3078
vt 0.3862 0.2401
vt 0.7714 0.5955
vt 0.7972 0.6007
vt 0.7910 0.6770
vt 0.7727 0.6373
vt 0.7804 0.5463
vt 0.8038 0.5193
vt 0.2485 0.5168
vt 0.3285 0.4406
vt 0.3684 0.4932
vt 0.3160 0.5432
vt 0.2280 0.5932
vt 0.3026 0.5932
vt 0.2000 0.8845
vt 0.1986 0.9361
vt 0.1396 0.9205
vt 0.1405 0.8867
vt 0.3962 0.4174
vt 0.4128 0.4780
vt 0.2032 0.7621
vt 0.1426 0.8066
vt 0.4187 0.4308
vt 0.5390 0.4174
vt 0.5148 0.4810
vt 0.4360 0.4898
vt 0.6588 0.4840
vt 0.5933 0.5246
vt 0.6853 0.5895
vt 0.6107 0.5938
vt 0.3285 0.7459
vt 0.2485 0.6696
vt 0.3160 0.6433
vt 0.3684 0.6933
vt 0.2139 0.9469
vt 0.2125 0.8952
vt 0.2720 0.8975
vt 0.2729 0.9313
vt 0.3962 0.7691
vt 0.4128 0.7084
vt 0.2092 0.7729
vt 0.2698 0.8173
vt 0.5390 0.7864
vt 0.4187 0.7731
vt 0.4360 0.7141
vt 0.5148 0.7228
vt 0.6588 0.7198
vt 0.5933 0.6792
vt 0.3428 0.1247
vt 0.2620 0.0934
vt 0.2620 0.0094
vt 0.3428 0.0447
vt 0.9296 0.6748
vt 0.8816 0.7330
vt 0.0813 0.0302
vt 0.2044 0.0020
vt 0.0019 0.0277
vt 0.8277 0.7398
vt 0.8277 0.6822
vt 0.1896 0.4174
vt 0.2085 0.4982
vt 0.1293 0.4982
vt 0.1293 0.4174
vt 0.9370 0.6182
vt 0.3428 0.1924
vt 0.2533 0.1814
vt 0.9278 0.5311
vt 0.3428 0.3054
vt 0.2620 0.3017
vt 0.8798 0.4733
vt 0.3428 0.3868
vt 0.2664 0.4101
vt 0.8277 0.5151
vt 0.8277 0.4660
vt 0.0565 0.7666
vt 0.1329 0.8013
vt 0.1329 0.8717
vt 0.0883 0.8526
vt 0.8277 0.6013
vt 0.9065 0.4454
vt 0.8361 0.4174
vt 0.3801 0.3011
vt 0.3801 0.3589
vt 0.3801 0.2140
vt 0.3801 0.1574
vt 0.9641 0.7075
vt 0.8879 0.7875
vt 0.8277 0.8019
vt 0.0019 0.7621
vt 0.0497 0.8676
vt 0.2044 0.2937
vt 0.2118 0.4136
vt 0.7271 0.2909
vt 0.7271 0.3709
vt 0.6463 0.4062
vt 0.6463 0.3221
vt 0.7738 0.7330
vt 0.7257 0.6748
vt 0.5886 0.4136
vt 0.4656 0.3853
vt 0.3862 0.3878
vt 0.0691 0.4174
vt 0.0502 0.4982
vt 0.7183 0.6182
vt 0.6376 0.2342
vt 0.7271 0.2232
vt 0.7276 0.5311
vt 0.6463 0.1139
vt 0.7271 0.1102
vt 0.7756 0.4733
vt 0.6507 0.0054
vt 0.7271 0.0287
vt 0.0565 0.9935
vt 0.1329 0.9589
vt 0.7489 0.4454
vt 0.7643 0.0567
vt 0.7643 0.1145
vt 0.7643 0.2016
vt 0.7643 0.2581
vt 0.7675 0.7875
vt 0.6912 0.7075
vt 0.0019 0.9980
vt 0.5886 0.1218
vt 0.5961 0.0020
vn 0.2510 -0.2516 -0.9347
vn 0.2587 0.0360 -0.9653
vn 0.9796 -0.0173 -0.2004
vn 0.9565 -0.0071 -0.2917
vn 0.3580 0.9297 -0.0861
vn 0.3036 0.9440 0.1289
vn -0.2510 -0.2516 -0.9347
vn -0.2587 0.0360 -0.9653
vn -0.9796 -0.0173 -0.2004
vn -0.9565 -0.0071 -0.2917
vn -0.3580 0.9297 -0.0861
vn -0.3036 0.9440 0.1289
vn -0.4055 -0.8284 0.3865
vn -0.1358 -0.8513 0.5068
vn 0.2940 -0.0548 0.9542
vn -0.5467 -0.8162 0.1871
vn 0.2977 0.0494 0.9534
vn 0.3016 -0.9347 0.1879
vn 0.2890 -0.9321 0.2185
vn -0.2469 -0.8264 0.5061
vn 0.4055 -0.8284 0.3865
vn 0.1358 -0.8513 0.5068
vn -0.2940 -0.0548 0.9542
vn 0.5467 -0.8162 0.1871
vn -0.2977 0.0494 0.9534
vn -0.3016 -0.9347 0.1879
vn -0.2890 -0.9321 0.2185
vn 0.2098 -0.8454 0.4912
vn 0.6119 0.5550 -0.5635
vn 0.7071 0.3239 -0.6286
vn 0.7119 0.3120 -0.6292
vn 0.6328 0.5074 -0.5848
vn 0.3694 0.8949 -0.2504
vn 0.4379 0.8234 -0.3609
vn 0.4548 0.8008 -0.3896
vn 0.7203 -0.0675 -0.6904
vn 0.7103 -0.1408 -0.6897
vn 0.7168 -0.1411 -0.6829
vn 0.7244 -0.0062 -0.6894
vn 0.7115 0.0122 -0.7026
vn 0.0550 0.9089 -0.4135
vn 0.0815 0.8700 -0.4863
vn 0.0819 0.8693 -0.4874
vn 0.2180 0.4393 -0.8715
vn 0.2365 0.3183 -0.9180
vn 0.2358 0.3231 -0.9165
vn 0.5580 0.8215 -0.1172
vn 0.4467 0.8938 -0.0394
vn 0.5248 0.8461 -0.0934
vn 0.9510 0.1192 -0.2853
vn 0.8990 0.3198 -0.2992
vn 0.9486 0.1337 -0.2867
vn 0.5874 0.8054 0.0792
vn 0.4479 0.8921 0.0600
vn 0.4053 0.8971 0.1757
vn 0.5452 0.8051 0.2337
vn 0.9871 0.1457 0.0664
vn 0.9424 0.3126 0.1188
vn 0.8749 0.3593 0.3247
vn 0.9338 0.2209 0.2815
vn 0.3528 0.8874 0.2967
vn 0.4916 0.7748 0.3974
vn 0.7796 0.3860 0.4932
vn 0.8288 0.2688 0.4908
vn 0.1552 0.7859 0.5986
vn 0.0707 0.8811 0.4675
vn 0.1445 0.7998 0.5826
vn 0.3298 0.1850 0.9257
vn 0.3854 0.4817 0.7871
vn 0.3549 0.2982 0.8861
vn 0.0124 0.9997 -0.0225
vn 0.0123 0.9997 -0.0188
vn 0.0099 0.9884 0.1516
vn 0.0141 0.9869 -0.1604
vn 0.1844 0.7450 0.6410
vn 0.6172 0.7554 0.2202
vn 0.5562 0.7027 0.4436
vn 0.6366 0.7664 0.0860
vn 0.5981 0.7878 -0.1471
vn 0.0985 0.8411 -0.5318
vn 0.2833 0.0113 0.9590
vn 0.9806 0.0224 0.1950
vn 0.8731 0.1079 0.4754
vn 0.9994 -0.0322 0.0099
vn 0.9627 -0.0681 -0.2620
vn 0.7773 -0.1298 -0.6155
vn 0.7789 -0.0899 -0.6207
vn 0.2512 0.1879 -0.9495
vn -0.6119 0.5550 -0.5635
vn -0.6328 0.5074 -0.5848
vn -0.7119 0.3120 -0.6292
vn -0.7071 0.3239 -0.6286
vn -0.3694 0.8949 -0.2504
vn -0.4548 0.8008 -0.3896
vn -0.4379 0.8234 -0.3609
vn -0.7203 -0.0675 -0.6904
vn -0.7244 -0.0062 -0.6894
vn -0.7168 -0.1411 -0.6829
vn -0.7103 -0.1408 -0.6897
vn -0.7115 0.0122 -0.7026
vn -0.0550 0.9089 -0.4135
vn -0.0819 0.8693 -0.4874
vn -0.0815 0.8700 -0.4863
vn -0.2180 0.4393 -0.8715
vn -0.2358 0.3231 -0.9165
vn -0.2365 0.3183 -0.9180
vn -0.5580 0.8215 -0.1172
vn -0.5249 0.8460 -0.0934
vn -0.4467 0.8938 -0.0394
vn -0.9510 0.1192 -0.2853
vn -0.9486 0.1338 -0.2867
vn -0.8990 0.3198 -0.2992
vn -0.5874 0.8054 0.0792
vn -0.5452 0.8051 0.2337
vn -0.4053 0.8971 0.1757
vn -0.4479 0.8921 0.0600
vn -0.9871 0.1457 0.0664
vn -0.9338 0.2209 0.2815
vn -0.8749 0.3593 0.3247
vn -0.9424 0.3126 0.1188
vn -0.4916 0.7748 0.3974
vn -0.3528 0.8874 0.2967
vn -0.8288 0.2688 0.4908
vn -0.7796 0.3860 0.4932
vn -0.1454 0.7697 0.6216
vn -0.1399 0.7794 0.6108
vn -0.0707 0.8811 0.4675
vn -0.2484 0.2137 0.9448
vn -0.2589 0.2770 0.9253
vn -0.2742 0.3833 0.8820
vn -0.0124 0.9997 -0.0225
vn -0.0099 0.9884 0.1516
vn -0.0123 0.9997 -0.0188
vn -0.0141 0.9869 -0.1604
vn -0.1687 0.7260 0.6667
vn -0.6172 0.7554 0.2202
vn -0.5562 0.7027 0.4436
vn -0.6366 0.7664 0.0860
vn -0.5981 0.7878 -0.1471
vn -0.0985 0.8411 -0.5318
vn -0.2256 0.0912 0.9700
vn -0.9806 0.0224 0.1950
vn -0.8731 0.1079 0.4755
vn -0.9994 -0.0322 0.0099
vn -0.9627 -0.0681 -0.2620
vn -0.7789 -0.0899 -0.6207
vn -0.7773 -0.1298 -0.6155
vn -0.2512 0.1879 -0.9495
usemtl hairTexture
s off
f 1/1/1 2/2/1 3/3/1 4/4/1
f 2/2/2 5/5/2 6/6/2 3/3/2
f 7/7/3 8/8/3 9/9/3 10/10/3
f 11/11/4 7/7/4 10/10/4 12/12/4
f 13/13/5 14/14/5 15/15/5 16/16/5
f 17/17/6 13/13/6 16/16/6 18/18/6
f 19/19/7 4/4/7 3/3/7 20/20/7
f 20/20/8 3/3/8 6/6/8 21/21/8
f 22/22/9 23/23/9 24/24/9 25/25/9
f 26/26/10 27/27/10 23/23/10 22/22/10
f 28/28/11 29/29/11 30/30/11 31/31/11
f 32/32/12 33/33/12 29/29/12 28/28/12
f 5/34/13 11/35/13 34/36/13 35/37/13
f 6/38/14 5/34/14 35/37/14 36/39/14
f 10/40/15 9/41/15 37/42/15 38/43/15
f 11/35/16 12/44/16 39/45/16 34/36/16
f 12/46/17 10/40/17 38/43/17 39/47/17
f 9/48/18 40/49/18 41/50/18 37/51/18
f 40/49/19 42/52/19 43/53/19 41/50/19
f 42/52/20 44/54/20 45/55/20 43/53/20
f 26/56/21 21/57/21 46/58/21 47/59/21
f 21/57/22 6/38/22 36/39/22 46/58/22
f 24/60/23 23/61/23 48/62/23 49/63/23
f 27/64/24 26/56/24 47/59/24 50/65/24
f 23/61/25 27/66/25 50/67/25 48/62/25
f 51/68/26 24/69/26 49/70/26 52/71/26
f 53/72/27 51/68/27 52/71/27 54/73/27
f 44/54/28 53/72/28 54/73/28 45/55/28
s 1
f 55/74/29 56/75/30 57/76/31 58/77/32
f 14/14/33 59/78/34 60/79/35 15/15/33
f 8/8/36 7/7/37 2/80/38 1/81/39
f 7/7/37 11/11/40 5/82/40 2/80/38
f 15/15/41 60/79/42 61/83/43 62/84/41
f 58/85/44 57/86/45 63/87/46 64/88/44
f 59/78/47 14/14/48 13/13/48 65/89/49
f 56/75/50 55/74/51 66/90/51 67/91/52
f 65/89/53 13/13/54 17/17/55 68/92/56
f 67/91/57 66/90/58 69/93/59 70/94/60
f 68/92/56 17/17/55 18/18/61 71/95/62
f 70/94/60 69/93/59 72/96/63 73/97/64
f 71/95/65 18/18/66 74/98/66 75/99/67
f 73/100/68 72/101/69 76/102/69 77/103/70
f 16/16/71 78/104/72 74/98/73 18/18/73
f 15/15/74 62/84/74 78/104/72 16/16/71
f 72/105/75 71/95/65 75/99/67 76/106/75
f 69/93/76 68/107/56 71/108/62 72/96/77
f 66/90/78 65/109/53 68/107/56 69/93/76
f 55/74/79 59/110/47 65/109/49 66/90/79
f 60/79/35 59/78/34 55/111/29 58/112/32
f 61/83/43 60/79/42 58/112/80 64/113/80
f 42/114/81 73/100/68 77/103/70 44/115/81
f 40/116/82 70/94/60 73/97/64 42/117/83
f 9/9/84 67/91/57 70/94/60 40/116/82
f 8/8/85 56/75/50 67/91/52 9/9/85
f 57/76/31 56/75/30 8/8/86 1/81/87
f 63/87/46 57/86/45 1/1/88 4/4/88
f 79/118/89 80/119/90 81/120/91 82/121/92
f 31/31/93 30/30/93 83/122/94 84/123/95
f 25/25/96 19/124/97 20/125/98 22/22/99
f 22/22/99 20/125/98 21/126/100 26/26/100
f 30/30/101 62/84/101 61/83/102 83/122/103
f 80/127/104 64/88/104 63/87/105 81/128/106
f 84/123/107 85/129/108 28/28/109 31/31/109
f 82/121/110 86/130/111 87/131/112 79/118/112
f 85/129/113 88/132/114 32/32/115 28/28/116
f 86/130/117 89/133/118 90/134/119 87/131/120
f 88/132/114 91/135/121 33/33/122 32/32/115
f 89/133/118 92/136/123 93/137/124 90/134/119
f 91/135/125 75/99/126 74/98/127 33/33/127
f 92/138/128 77/103/129 76/102/130 93/139/130
f 29/29/131 33/33/132 74/98/132 78/104/133
f 30/30/134 29/29/131 78/104/133 62/84/134
f 93/140/135 76/106/135 75/99/126 91/135/125
f 90/134/136 93/137/137 91/141/121 88/142/114
f 87/131/138 90/134/136 88/142/114 85/143/113
f 79/118/139 87/131/139 85/143/108 84/144/107
f 83/122/94 80/145/90 79/146/89 84/123/95
f 61/83/102 64/113/140 80/145/140 83/122/103
f 53/147/141 44/115/141 77/103/129 92/138/128
f 51/148/142 53/149/143 92/136/123 89/133/118
f 24/24/144 51/148/142 89/133/118 86/130/117
f 25/25/145 24/24/145 86/130/111 82/121/110
f 81/120/91 19/124/146 25/25/147 82/121/92
f 63/87/105 4/4/148 19/19/148 81/128/106
